<svg xmlns="http://www.w3.org/2000/svg" width="680" height="420" viewBox="0 0 680 420">

  <rect width="680" height="420" fill="#f2f4f8"/>

  <text x="40" y="38" font-family="monospace" font-size="11" letter-spacing="2" fill="#1c2333" opacity="0.7">MARKET ACCESS X · STRATEGIC ANALYSIS</text>

  <text x="40" y="72" font-family="Georgia, serif" font-size="22" font-weight="400" fill="#1c2333">China's Processing Dominance</text>
  <text x="40" y="92" font-family="'DM Sans', sans-serif" font-size="12" fill="#4a5568">Share of global midstream processing capacity, 2025</text>

  <line x1="40" y1="108" x2="640" y2="108" stroke="#2a6e9e" stroke-width="1.5" opacity="0.3"/>

  <!-- Lithium -->
  <text x="40" y="148" font-family="Georgia, serif" font-size="15" font-weight="500" fill="#2c3444">Lithium chemicals</text>
  <text x="40" y="165" font-family="'DM Sans', sans-serif" font-size="12" fill="#7a8599">Battery-grade carbonate &amp; hydroxide</text>
  <rect x="40" y="176" width="480" height="22" rx="4" fill="#e8ecf2"/>
  <rect x="40" y="176" width="312" height="22" rx="4" fill="#2a6e9e"/>
  <rect x="352" y="176" width="168" height="22" rx="4" fill="#7ab8db" opacity="0.5"/>
  <text x="536" y="197" font-family="Georgia, serif" font-size="26" font-weight="400" fill="#2a6e9e">65%</text>
  <text x="536" y="212" font-family="'DM Sans', sans-serif" font-size="12" fill="#7a8599">China</text>

  <!-- Rare Earths -->
  <text x="40" y="248" font-family="Georgia, serif" font-size="15" font-weight="500" fill="#2c3444">Rare earth separation</text>
  <text x="40" y="265" font-family="'DM Sans', sans-serif" font-size="12" fill="#7a8599">NdPr oxides, heavy REE fractions</text>
  <rect x="40" y="276" width="480" height="22" rx="4" fill="#e8ecf2"/>
  <rect x="40" y="276" width="408" height="22" rx="4" fill="#1a4f75"/>
  <rect x="448" y="276" width="72" height="22" rx="4" fill="#7ab8db" opacity="0.5"/>
  <text x="536" y="297" font-family="Georgia, serif" font-size="26" font-weight="400" fill="#1a4f75">85%+</text>
  <text x="536" y="312" font-family="'DM Sans', sans-serif" font-size="12" fill="#7a8599">China</text>

  <!-- Graphite -->
  <text x="40" y="348" font-family="Georgia, serif" font-size="15" font-weight="500" fill="#2c3444">Graphite anode material</text>
  <text x="40" y="365" font-family="'DM Sans', sans-serif" font-size="12" fill="#7a8599">Battery-grade anode production</text>
  <rect x="40" y="376" width="480" height="22" rx="4" fill="#e8ecf2"/>
  <rect x="40" y="376" width="384" height="22" rx="4" fill="#0f3d5c"/>
  <rect x="424" y="376" width="96" height="22" rx="4" fill="#7ab8db" opacity="0.5"/>
  <text x="536" y="397" font-family="Georgia, serif" font-size="26" font-weight="400" fill="#0f3d5c">~80%</text>
  <text x="536" y="412" font-family="'DM Sans', sans-serif" font-size="12" fill="#7a8599">China</text>

  <!-- Legend -->
  <rect x="40" y="406" width="10" height="10" rx="2" fill="#2a6e9e"/>
  <text x="56" y="415" font-family="'DM Sans', sans-serif" font-size="12" fill="#4a5568">China-controlled processing</text>
  <rect x="240" y="406" width="10" height="10" rx="2" fill="#7ab8db" opacity="0.5"/>
  <text x="256" y="415" font-family="'DM Sans', sans-serif" font-size="12" fill="#4a5568">Rest of world</text>

</svg>
